<svg xmlns="http://www.w3.org/2000/svg" viewBox="0 0 800 600" width="800" height="600" role="img" aria-label="Scooter electrico - imagen de referencia"><rect width="800" height="600" fill="#131313"/><rect x="1" y="1" width="798" height="598" fill="none" stroke="rgba(255,255,255,0.06)" stroke-width="2"/><circle cx="215" cy="430" r="66" fill="none" stroke="#6f7684" stroke-width="11"/><circle cx="215" cy="430" r="36" fill="none" stroke="#40444d" stroke-width="7"/><circle cx="590" cy="430" r="66" fill="none" stroke="#6f7684" stroke-width="11"/><circle cx="590" cy="430" r="36" fill="none" stroke="#40444d" stroke-width="7"/><path d="M250 402 H500 a14 14 0 0 1 14 14 v6 a14 14 0 0 1 -14 14 H250 a14 14 0 0 1 -14 -14 v-6 a14 14 0 0 1 14 -14 Z" fill="none" stroke="#6f7684" stroke-width="9"/><rect x="262" y="410" width="150" height="9" rx="4" fill="#C23B22"/><path d="M505 420 C 545 360 555 250 566 168" fill="none" stroke="#6f7684" stroke-width="10" stroke-linecap="round"/><path d="M566 168 q -6 -18 -34 -20" fill="none" stroke="#6f7684" stroke-width="10" stroke-linecap="round"/><path d="M470 405 C 470 330 500 250 545 205" fill="none" stroke="#40444d" stroke-width="9" stroke-linecap="round"/><path d="M300 402 v-40 a10 10 0 0 1 10 -10 h70 a10 10 0 0 1 10 10 v40" fill="none" stroke="#6f7684" stroke-width="9"/><line x1="120" y1="512" x2="680" y2="512" stroke="#40444d" stroke-width="3"/><g font-family="Inter, system-ui, sans-serif" fill="rgba(255,255,255,0.42)"><text x="60" y="70" font-size="26" font-weight="700" letter-spacing="1">SCOOTER ELECTRICO</text><text x="60" y="102" font-size="19">Detalle &#183; imagen de referencia</text></g><circle cx="712" cy="64" r="7" fill="#C23B22"/></svg>
